<svg width="411" height="406" viewBox="0 0 411 406" fill="none" xmlns="http://www.w3.org/2000/svg">
<path d="M42 41H369V39H42V41ZM370 42V364H372V42H370ZM369 365H42V367H369V365ZM41 364V42H39V364H41ZM42 365C41.4477 365 41 364.552 41 364H39C39 365.657 40.3431 367 42 367V365ZM370 364C370 364.552 369.552 365 369 365V367C370.657 367 372 365.657 372 364H370ZM369 41C369.552 41 370 41.4477 370 42H372C372 40.3431 370.657 39 369 39V41ZM42 39C40.3431 39 39 40.3432 39 42H41C41 41.4477 41.4477 41 42 41V39Z" fill="white" fill-opacity="0.1"/>
<path d="M111.158 157.152C111.072 154.885 112.886 153 115.155 153H124.149C126.299 153 128.065 154.7 128.146 156.848L131 232L128.139 311.144C128.062 313.296 126.295 315 124.142 315H115.147C112.881 315 111.068 313.12 111.15 310.856L114 232L111.158 157.152Z" fill="#D9D9D9"/>
<path d="M244.149 148.144C244.068 145.88 245.881 144 248.146 144H257.141C259.294 144 261.061 145.704 261.139 147.856L264 227.389L261.132 311.137C261.059 313.291 259.29 315 257.135 315H248.139C245.877 315 244.064 313.125 244.142 310.863L247 227.389L244.149 148.144Z" fill="#D9D9D9"/>
<path d="M191.5 158.168C191.5 188.266 156.458 149.372 128.772 166.457C127.368 167.323 125.526 167.382 124.11 166.537C75.1562 137.337 80 188.609 80 158.168C80 127.548 134.387 164.419 167.009 145.749C167.652 145.381 168.404 145.171 169.144 145.158C196.836 144.692 191.5 127.658 191.5 158.168Z" fill="#D9D9D9"/>
<path d="M192.161 215.441C192.106 216.991 191.074 218.364 189.578 218.773C175.359 222.655 160.71 215.493 138.5 215.493C115.028 215.493 115.5 236.294 115.5 213.65C115.5 191.303 125.754 203.179 148.584 203.494C149.181 203.502 149.77 203.648 150.337 203.835C162.231 207.761 193.204 186.012 192.161 215.441Z" fill="#D9D9D9"/>
<path d="M325.454 307.118C325.514 308.796 324.461 310.335 322.846 310.794C308.124 314.984 282.448 314.103 275.249 310.705C274.391 310.3 273.464 309.931 272.516 309.963C250.462 310.706 249 327.745 249 305.588C249 283.271 259.227 295.086 281.994 295.431C282.649 295.441 283.323 295.612 283.905 295.91C313.994 311.27 324.676 285.565 325.454 307.118Z" fill="#D9D9D9"/>
<path d="M237.522 309.665C238.81 311.398 237.97 313.801 236 314.687C218.317 322.643 217.351 313.685 199.041 318.705C198.368 318.889 197.635 318.91 196.955 318.757C172.541 313.244 156.5 321.713 156.5 313C156.5 304.286 170.601 308.869 196.886 304.202C197.608 304.074 198.358 304.154 199.069 304.34C209.171 306.977 228.253 297.189 237.522 309.665Z" fill="#D9D9D9"/>
<path d="M236 240.5C236 252.759 217.508 271.002 193.485 280.612C192.842 280.869 192.118 280.936 191.428 280.864C166.677 278.268 165.45 316.214 158.096 314.52C157.33 314.344 156.841 313.606 156.576 312.866C150.405 295.638 157.52 281.079 190.902 263.818C191.906 263.299 193.106 263.261 194.199 263.551C216.5 269.485 236 223.92 236 240.5Z" fill="#D9D9D9"/>
<path d="M232.599 235.249C234.512 236.142 235.421 238.415 234.457 240.294C228.171 252.552 222.282 241.852 197.5 241.852C182.838 241.852 173.062 245.405 165.064 245.408C161.235 245.409 162.071 241.406 165.639 240.018C171.555 237.716 175.175 233.624 186.677 229.955C186.887 229.888 187.117 229.836 187.336 229.805C210.563 226.567 215.533 227.288 232.599 235.249Z" fill="#D9D9D9"/>
<path d="M207.5 154.5C207.5 160.023 193.944 114.5 147 114.5C129.635 114.5 113.076 120.863 99.102 128.881C94.8211 131.337 91.3067 127.414 95.1486 124.315C108.945 113.189 126.16 104 147 104C193.944 104 207.5 148.977 207.5 154.5Z" fill="#D9D9D9"/>
<path d="M339.811 167.826C341.523 171.976 336.51 172.972 333.951 169.284C323.721 154.532 305.249 137 274 137C217.943 137 211 160.5 211 156.082C211 151.664 227.943 127 284 127C316.204 127 332.364 149.773 339.811 167.826Z" fill="#D9D9D9"/>
<path d="M341.5 164C341.5 161.239 328.354 116 285 116C241.646 116 212 151.239 212 154C212 156.761 241 117 285 119C328.354 119 341.5 166.761 341.5 164Z" fill="#D9D9D9"/>
<path d="M93 122.5C93 119.739 106 100 150.304 97.5C197.5 97.5 206.5 149.739 206.5 152.5C206.5 155.261 195.5 100 150.304 100C105 100 93 125.261 93 122.5Z" fill="#D9D9D9"/>
<path d="M93 117C93 114.239 106 94.5 150.304 92C197.5 92 206 149.239 206 152C206 154.761 195.5 94.5 150.304 94.5C105 94.5 93 119.761 93 117Z" fill="#D9D9D9"/>
<path d="M93 110C93 107.239 106 87.5 150.304 85C197.5 85 206 150.739 206 153.5C206 156.261 195.5 87.5 150.304 87.5C105 87.5 93 112.761 93 110Z" fill="#D9D9D9"/>
<path d="M341.5 157C341.5 154.239 328.354 109 285 109C241.646 109 212.5 150.739 212.5 153.5C212.5 156.261 241 110 285 112C328.354 112 341.5 159.761 341.5 157Z" fill="#D9D9D9"/>
<path d="M341.5 151C341.5 148.239 328.354 103 285 103C241.646 103 213 150.239 213 153C213 155.761 241 104 285 106C328.354 106 341.5 153.761 341.5 151Z" fill="#D9D9D9"/>
</svg>
